<svg version="1.0" xmlns="http://www.w3.org/2000/svg" width="36" height="36" viewBox="0 0 36 36"><g fill="#FFF"><path d="M10.845 23.408l-.451-.788v.112l-.676-1.239-1.915 1.127 1.127 1.915 1.464-.901zM6.902 18.789l2.14-.338.339 2.14-2.14.338zM24.366 8.761l-1.465 1.69 1.691 1.464 1.014-1.126v-.113l.45-.451-.45-.338zM11.859 30.394l1.014-1.69-1.69-1.014-.789 1.465-.225.338.225.113zM11.634 27.239l1.465-1.69-1.691-1.465-1.014 1.24-.45.451.45.45zM7.803 13.493l1.915 1.127.676-1.24.451-.788-.451-.226-1.464-.789zM3.746 10.676l1.353.789.676-1.352-1.24-.789zM22.112 4.142l.563-1.465 1.465.563-.564 1.465zM4.648 14.281l.676-1.915 1.915.676-.676 1.915zM25.831 29.493l-.225-.338-.902-1.352-1.69 1.014 1.014 1.69 1.578-.901zM11.748 32.76l.564-1.464 1.464.564-.563 1.464zM2.056 20.029l1.577-.226.225 1.577-1.577.226zM19.858 9.325l.79-2.141 2.14.788L22 10.114zM2.056 15.972l1.578.225.225-1.465-1.577-.225zM19.07 6.282l1.916.338.338-2.028-1.916-.339zM14.563 4.48l2.028-.339.338 2.028-2.028.338zM10.169 6.507l.225.338.789 1.465 1.803-1.014-1.014-1.69-1.578.788zM12.985 7.859l2.141-.79.79 2.142-2.142.789zM13.097 28.028l.79-2.14 2.14.788-.789 2.141zM14.563 31.408l.338-2.028 2.028.338-.338 2.028zM24.028 5.606l-.901 1.69 1.69 1.014.789-1.465.112-.338-.112-.113zM11.746 3.239l1.464-.563.564 1.464-1.465.563zM10.394 10.789v-.113l1.014 1.239 1.691-1.464-1.465-1.69-1.24 1.126-.45.338zM16.817 26.901h2.254v2.254h-2.254zM26.62 6.506l1.013-1.24 1.24 1.014-1.015 1.24zM26.393 26.338l1.24-1.578L29.21 26l-1.24 1.577zM17.155 2h1.578v1.577h-1.578zM28.647 23.07l.676-1.916 1.915.676-.676 1.915zM27.634 11.239l1.577-1.352-1.239-1.577-1.578 1.239zM32.14 21.378l.226-1.577 1.577.225-.225 1.577zM30.114 25.888l.789-1.351 1.352.788-.789 1.352zM29.775 16.986h2.028v2.028h-2.028zM9.268 6.394L8.254 5.268 7.127 6.282l1.014 1.239zM19.408 31.859l2.029-.338-.338-1.915-2.029.225zM17.155 32.423h1.578V34h-1.578zM8.254 11.239l1.352-1.577-1.578-1.239-1.239 1.464zM33.606 14.507l-1.578.225.338 1.578 1.578-.226zM26.62 15.408l2.141-.338.338 2.14-2.14.338zM26.621 20.592l.338-2.14 2.14.337-.337 2.14zM16.817 6.845h2.254v2.254h-2.254zM4.197 16.986h2.028v2.028H4.197zM7.128 29.83l1.014-1.24 1.24 1.014-1.015 1.24zM6.563 21.155l-1.915.676.676 1.803 1.915-.676zM6.788 26.113l1.577-1.24 1.24 1.578-1.578 1.24zM6.79 17.211l.338-2.14 2.14.338-.338 2.14zM3.746 25.324l.789 1.352 1.24-.789-.789-1.352zM28.197 22.507l-1.915-1.127-.676 1.24v.112l-.451.676.451.226 1.464.789zM19.97 26.675l2.142-.789.789 2.141-2.141.79zM28.648 13.042l1.915-.676.676 1.915-1.915.676zM30.114 10.113l1.351-.789.789 1.352-1.352.789zM25.155 12.592l.451.788.676 1.127 1.915-1.127-1.127-1.915-1.464.901zM22.225 31.858l1.464-.564.563 1.465-1.464.563zM26.62 29.608l1.24-1.014 1.013 1.24-1.24 1.013zM25.606 25.324l-1.014-1.127-1.691 1.465 1.465 1.69 1.24-1.127.45-.45z"/></g></svg>
