<svg xmlns="http://www.w3.org/2000/svg" width="36" height="36" viewBox="0 0 36 36"><title>icon_category</title><path fill="none" d="M0 0h36v36H0z"/><path fill="#fff" d="M10 16h15v3H10zM20 22h4v3h-4zM10 22h7v3h-7zM10 10h9v3h-9z" opacity=".3"/><path d="M8.58 34.11L5 31.54V4.46l3.58-2.57 3.13 2.21 3.14-2.21L18 4.1l3.14-2.21 3.13 2.21 3.14-2.21L31 4.46v27.08l-3.63 2.57-3.1-2.21-3.14 2.21L18 31.9l-3.14 2.21-3.15-2.21zM18 30.67l3.14 2.21 3.14-2.21 3.14 2.21L30 31V5l-2.59-1.89-3.14 2.22-3.14-2.22L18 5.33l-3.15-2.22-3.14 2.22-3.13-2.22L6 5v26l2.63 1.86 3.13-2.21 3.14 2.21z" fill="#fff"/></svg>