<svg version="1.0" xmlns="http://www.w3.org/2000/svg" width="18" height="18" viewBox="0 0 18 18"><g fill="#1A1F71"><path d="M7.975 11.917H6.718l.786-4.831h1.257zM5.66 7.086l-1.199 3.322-.142-.715-.423-2.172s-.051-.435-.597-.435H1.318l-.024.082s.606.126 1.315.552l1.093 4.196h1.31l2.001-4.83H5.66zM15.551 11.917h1.155l-1.007-4.83h-1.011c-.467 0-.581.36-.581.36l-1.875 4.47h1.311l.262-.717h1.599l.147.717zm-1.384-1.709l.661-1.808.372 1.808h-1.033zM12.33 8.248l.179-1.037S11.955 7 11.378 7c-.624 0-2.106.273-2.106 1.599 0 1.248 1.739 1.264 1.739 1.919s-1.56.538-2.075.125l-.186 1.084s.561.273 1.42.273c.858 0 2.153-.445 2.153-1.654 0-1.256-1.755-1.373-1.755-1.919-.001-.546 1.224-.475 1.762-.179z"/></g><path fill="#FDBB0A" d="M4.319 9.694l-.423-2.173s-.051-.435-.597-.435H1.318l-.024.082s.953.197 1.867.937a3.769 3.769 0 0 1 1.158 1.589z"/></svg>
