<svg version="1.0" xmlns="http://www.w3.org/2000/svg" width="18" height="18" viewBox="0 0 18 18"><path fill="#231F20" d="M15 10h1v1h-1zM15 8h1v1h-1zM15 6h1v1h-1zM14 11h1v1h-1zM14 9h1v1h-1zM14 7h1v1h-1zM13 12h1v1h-1zM13 10h1v1h-1zM13 8h1v1h-1zM13 6h1v1h-1zM13 4h1v1h-1zM12 13h1v1h-1zM12 5h1v1h-1zM12 3h1v1h-1zM11 14h1v1h-1zM11 7h1v1h-1zM11 8h1v4h-1zM11 6h1v1h-1zM10 14h1v1h-1zM10 12h1v1h-1z"/><path fill="#FFE60D" d="M11 8v4h-1v1H8v-1H7V8z"/><path fill="#231F20" d="M7 7h4v1H7z"/><path fill="#FFF" d="M11 6v1H7V6h1V5h2v1z"/><path fill="#231F20" d="M10 5h1v1h-1zM10 4h1v1h-1zM9 15h1v1H9zM9 13h1v1H9zM8 4h2v1H8zM8 2h2v1H8zM8 15h1v1H8zM8 13h1v1H8zM7 14h1v1H7zM7 12h1v1H7zM7 5h1v1H7zM7 4h1v1H7zM6 14h1v1H6zM6 8h1v4H6zM6 7h1v1H6zM6 6h1v1H6zM5 13h1v1H5zM5 5h1v1H5zM5 3h1v1H5zM4 12h1v1H4zM4 10h1v1H4zM4 8h1v1H4zM4 6h1v1H4zM4 4h1v1H4zM3 11h1v1H3zM3 9h1v1H3zM3 7h1v1H3zM2 10h1v1H2zM2 8h1v1H2zM2 6h1v1H2z"/></svg>
