<svg version="1.0" xmlns="http://www.w3.org/2000/svg" width="18" height="18" viewBox="0 0 18 18"><g fill="#FFF"><path d="M8 2h2v1H8zM6 8v4h1V8h4v4h1V6h-1v1H7V6H6v1zM8 5h2v1h1V4H7v2h1zM5 3h1v1H5zM5 5h1v1H5zM4 4h1v1H4zM4 6h1v1H4zM2 6h1v1H2zM3 7h1v1H3zM4 8h1v1H4zM2 8h1v1H2zM3 9h1v1H3zM4 10h1v1H4zM2 10h1v1H2zM3 11h1v1H3zM4 12h1v1H4zM5 13h1v1H5zM7 12h1v1H7zM7 14H6v1h2v-1zM8 15v1h2v-1H9zM12 3h1v1h-1zM12 5h1v1h-1zM13 4h1v1h-1zM13 6h1v1h-1zM15 6h1v1h-1zM14 7h1v1h-1zM13 8h1v1h-1zM15 8h1v1h-1zM14 9h1v1h-1zM13 10h1v1h-1zM15 10h1v1h-1zM14 11h1v1h-1zM13 12h1v1h-1zM12 13h1v1h-1zM10 14v1h2v-1h-1zM10 14v-1H8v1h1zM10 12h1v1h-1z"/></g></svg>
