<svg version="1.0" xmlns="http://www.w3.org/2000/svg" width="30" height="30" viewBox="0 0 30 30"><path fill="#FFF" d="M25.812 12.01c-.721-1.048-1.21-1.69-2.132-1.69h-1.75c.663.838 1.07 1.955 1.07 3.68 0 1.448-.279 4.069-1.26 5.096.271.199.74.364 1.6.364h1.207l-.854.854c-.661.661-1.035 2.099-1.152 3.199 1.278-.422 2.241-.885 3.012-2.426l.247-.494.467.294c.652.411 1.301.545 1.971.4C27.39 19.728 27 17.292 27 15.5v-.45l.447-.047c.7-.075 1.047-.234 1.243-.65-1.45-.266-2.233-1.405-2.878-2.343zM25 18.5c0-2.146-.28-3.568-.938-4.758l.875-.483C25.683 14.606 26 16.174 26 18.5h-1zM21.929 10.318l1.487-.923c1.03-.64.914-1.747.505-2.737-.769.722-1.804 1.188-2.286 1.324L21 8.159V7.5c0-.86-.829-1.262-1.639-1.418.439 1.039.322 1.676.246 2.09-.018.092-.04.219-.033.255.001 0 .033.051.187.146.846.515 1.6 1.028 2.168 1.745z"/><path fill="#FFE60D" d="M11 22c0 .729.771 1.5 1.5 1.5h1c.682 0 1.179.34 1.5.669.321-.329.818-.669 1.5-.669h1c.729 0 1.5-.771 1.5-1.5v-4h-8v4zM11 17h8v-5h-1.325l-2.679 2.144L12.381 12H11z"/><path fill="#FFF" d="M15.004 12.856L17 11.26V9.115C16.675 8.512 15.771 8 15 8c-.77 0-1.675.511-2 1.114.003.745.035 1.711.051 2.142l1.953 1.6zM8.07 10.32H6.32c-.922 0-1.411.643-2.132 1.69-.646.938-1.429 2.077-2.879 2.343.196.416.543.575 1.243.65L3 15.05v.45c0 1.792-.39 4.228-1.237 5.788.672.145 1.318.011 1.971-.4l.466-.295.247.494c.771 1.541 1.733 2.004 3.012 2.426-.117-1.101-.491-2.538-1.152-3.199l-.854-.854H6.66c.859 0 1.328-.165 1.6-.364C7.279 18.069 7 15.448 7 14c0-1.725.407-2.842 1.07-3.68zM5 18.5H4c0-2.326.317-3.894 1.062-5.242l.875.483C5.28 14.932 5 16.354 5 18.5zM6.079 6.658c-.409.99-.525 2.097.505 2.737l1.487.923c.567-.717 1.321-1.23 2.168-1.745.159-.099.188-.15.188-.151a1.416 1.416 0 0 0-.034-.251c-.076-.414-.193-1.051.246-2.09C9.829 6.238 9 6.64 9 7.5v.659l-.635-.178c-.482-.135-1.517-.602-2.286-1.323z"/><path fill="#231F20" d="M16.782 4.43l.436-.9a5.032 5.032 0 0 0-4.436-.01l.436.9c1.134-.549 2.399-.553 3.564.01zM9.943 25.662l-.547.837c1.771 1.159 3.701 1.771 5.584 1.771 1.884 0 3.829-.623 5.624-1.802l-.549-.836c-3.262 2.142-6.895 2.134-10.112.03zM12 9c0 .635.024 1.469.041 2h.518v1h-.178l2.615 2.144L17.675 12H17.5v-.5-.5h.5V9l-.042-.201C17.521 7.807 16.195 7 15 7s-2.521.807-2.958 1.799L12 9zm3-1c.771 0 1.675.512 2 1.115v2.145l-1.996 1.597-1.953-1.6A73.94 73.94 0 0 1 13 9.114C13.325 8.511 14.23 8 15 8z"/><path fill="#231F20" d="M17.5 11.5v.5H19v5h.5v1H19v4c0 .729-.771 1.5-1.5 1.5h-1c-.682 0-1.179.34-1.5.669-.321-.329-.818-.669-1.5-.669h-1c-.729 0-1.5-.771-1.5-1.5V12h1.559v-1H10v11c0 1.285 1.215 2.5 2.5 2.5h1c.671 0 1.051.719 1.053.724l.441.877.451-.874c.004-.007.384-.727 1.055-.727h1c1.285 0 2.5-1.215 2.5-2.5V11h-2.5v.5z"/><path fill="#231F20" d="M11 18h8.5v-.5-.5H11v1zM9.434 19.248l.315-.551-.609-.177C8.623 18.37 8 16.321 8 14c0-2.699 1.043-3.528 2.76-4.573l.003-.001c.788-.486.688-1.034.613-1.435-.078-.424-.185-1.005.553-2.234L12.383 5H11.5c-1.489 0-2.99.565-3.395 1.808-.554-.261-1.329-.731-1.73-1.328l-.457-.679-.396.717c-.898 1.629-.974 3.038-.251 4.016-.851.375-1.402 1.178-1.906 1.909C2.639 12.499 2.012 13.41.66 13.41H.058l.111.592c.25 1.333.989 1.762 1.823 1.928-.064 1.87-.54 4.188-1.393 5.331l-.376.503.575.253c1.018.448 2.024.438 3.002-.027 1.039 1.75 2.382 2.172 3.918 2.655l.782.247v-.682c0-.661-.183-2.505-.911-3.82.884-.146 1.491-.523 1.845-1.142zm-2.774.212H5.453l.854.854c.661.661 1.035 2.099 1.152 3.199-1.278-.422-2.241-.885-3.012-2.426l-.247-.494-.467.294c-.652.412-1.299.545-1.971.4C2.61 19.728 3 17.292 3 15.5v-.45l-.447-.047c-.7-.075-1.047-.234-1.243-.65 1.45-.266 2.233-1.405 2.879-2.343.721-1.048 1.21-1.69 2.132-1.69h1.75C7.407 11.158 7 12.275 7 14c0 1.448.279 4.069 1.26 5.096-.272.199-.74.364-1.6.364zM9 7.5c0-.86.829-1.262 1.639-1.418-.439 1.039-.322 1.676-.246 2.09.018.093.04.219.034.251 0 0-.028.052-.188.151-.847.515-1.601 1.027-2.168 1.745l-1.487-.924c-1.03-.64-.914-1.747-.505-2.737.769.722 1.804 1.188 2.286 1.324L9 8.159V7.5z"/><path fill="#231F20" d="M4 18.5h1c0-2.146.28-3.568.938-4.758l-.875-.483C4.317 14.606 4 16.174 4 18.5zM29.831 14.002l.111-.592h-.602c-1.352 0-1.979-.911-2.704-1.967-.504-.731-1.056-1.535-1.906-1.909.723-.978.646-2.387-.252-4.016l-.396-.717-.457.679c-.401.596-1.176 1.066-1.73 1.328C21.49 5.565 19.989 5 18.5 5h-.883l.454.757c.737 1.229.631 1.81.553 2.234-.074.4-.175.949.613 1.435l.003.001C20.957 10.472 22 11.301 22 14c0 2.321-.623 4.37-1.14 4.52l-.609.177.315.551c.354.619.961.996 1.845 1.142-.729 1.314-.911 3.159-.911 3.82v.682l.781-.247c1.536-.483 2.879-.906 3.918-2.655.978.465 1.985.476 3.002.027l.575-.253-.376-.503c-.853-1.143-1.328-3.461-1.393-5.331.835-.165 1.574-.595 1.824-1.928zm-2.384 1.001L27 15.05v.45c0 1.792.39 4.228 1.237 5.788-.67.145-1.318.011-1.971-.4l-.466-.295-.247.494c-.771 1.541-1.733 2.004-3.012 2.426.117-1.101.491-2.538 1.152-3.199l.854-.854H23.34c-.859 0-1.328-.165-1.6-.364C22.721 18.069 23 15.448 23 14c0-1.725-.407-2.842-1.07-3.68h1.75c.922 0 1.411.643 2.132 1.69.646.938 1.429 2.077 2.879 2.343-.197.416-.544.575-1.244.65zm-7.873-6.576a1.291 1.291 0 0 1 .033-.255c.076-.414.193-1.051-.246-2.09C20.171 6.238 21 6.64 21 7.5v.659l.635-.178c.482-.135 1.518-.602 2.286-1.324.409.99.525 2.097-.505 2.737l-1.487.923c-.567-.717-1.321-1.23-2.168-1.745-.154-.093-.186-.145-.187-.145z"/><path fill="#231F20" d="M24.062 13.742c.658 1.19.938 2.612.938 4.758h1c0-2.326-.317-3.894-1.062-5.242l-.876.484z"/></svg>
