<svg version="1.0" xmlns="http://www.w3.org/2000/svg" width="18" height="18" viewBox="0 0 18 18"><g fill="#FFF"><path d="M8.429 3.864H9.57v1.141H8.429zM8.674 1.5h.652v.652h-.652zM5.83 2.195l.601-.25.25.603-.602.25zM3.466 3.927l.461-.46.461.46-.46.461zM1.947 6.432l.25-.603.602.25-.25.602zM1.5 8.674h.652v.652H1.5zM1.946 11.569l.603-.25.25.603-.603.25zM3.466 14.073l.461-.461.461.461-.46.461zM5.83 15.804l.249-.602.602.25-.25.602zM8.674 15.848h.652v.652h-.652zM11.32 15.452l.602-.25.25.603-.603.249zM13.613 14.073l.461-.461.461.46-.46.462zM15.202 11.922l.25-.603.602.25-.25.602zM15.848 8.674h.652v.652h-.652zM15.203 6.078l.602-.25.25.603-.603.25zM13.612 3.927l.46-.461.462.461-.461.461zM11.32 2.549l.249-.603.602.25-.25.602zM7.28 2.859l.96-.191.19.96-.96.19zM5.06 3.984l.813-.543.544.813-.813.543zM3.44 5.874l.544-.813.813.543-.543.814zM2.668 8.239l.19-.96.96.191-.19.96zM2.668 9.761l.96-.19.19.958-.96.191zM3.44 12.127l.814-.544.543.813-.813.544zM5.06 14.015l.544-.813.814.544-.544.813zM7.28 15.14l.191-.958.96.19-.192.96zM9.57 14.373l.96-.19.19.958-.959.191zM11.582 13.746l.813-.544.544.814-.814.543zM13.201 12.397l.544-.813.813.543-.544.813zM14.182 10.529l.19-.96.96.192-.19.959zM14.182 7.471l.96-.19.19.959-.959.19zM13.201 5.604l.813-.543.544.813-.813.543zM11.583 4.254l.543-.813.813.543-.543.813zM9.57 3.627l.19-.959.96.19-.19.96zM8.429 12.995H9.57v1.141H8.429zM6.482 4.463l1.09-.451.452 1.09-1.09.451zM9.976 12.9l1.09-.452.452 1.09-1.09.451zM4.93 5.772l.841-.84.841.84-.84.84zM11.388 12.227l.84-.84.841.84-.84.841zM4.013 7.572l.45-1.088 1.09.45L5.1 8.024zM12.447 11.066l.452-1.09 1.09.451-.452 1.09zM3.864 8.429h1.141V9.57H3.864zM12.995 8.429h1.141V9.57h-1.141zM4.011 10.428l1.09-.452.452 1.09-1.09.452zM12.447 6.934l1.09-.451.452 1.09-1.09.451zM4.931 12.229l.84-.841.842.84-.841.841zM11.387 5.771l.841-.84.84.84-.84.841zM6.483 13.537l.451-1.09 1.09.451-.451 1.09zM9.976 5.102l.452-1.09 1.09.45-.451 1.091z"/></g></svg>
