<svg version="1.0" xmlns="http://www.w3.org/2000/svg" width="30" height="30" viewBox="0 0 30 30"><path d="M9.529 2.084l1.281-.493.493 1.281-1.281.493zM25.303 14.113h1.775v1.775h-1.775zM25.6 21.902l.69-1.183 1.183.69-.69 1.183zM24.317 19.436l.591-1.675 1.676.59-.591 1.677zM27.371 17.958l.198-1.38 1.38.197-.198 1.38zM23.923 18.944l-1.677-.986-.591 1.084v.099l-.394.591.394.198 1.282.69zM22.544 12.732l1.873-.296.296 1.873-1.873.296zM22.544 17.267l.296-1.873 1.873.296-.296 1.873zM24.317 10.663l1.676-.591.591 1.675-1.675.592zM20.57 6.915l-1.281 1.479 1.479 1.282.887-.986v-.098l.394-.395-.394-.296zM20.275 4.155l-.789 1.479 1.479.887.69-1.282.099-.295-.099-.099zM28.655 11.944l-1.38.197.295 1.38 1.381-.197zM2.528 8.592l1.183.69.592-1.183-1.085-.691zM25.6 8.099l1.183-.69.69 1.183-1.184.69zM13.965 5.239h1.972v1.972h-1.972zM21.655 21.408l-.887-.985-1.479 1.281 1.281 1.479 1.085-.986.394-.394zM23.43 9.084l1.38-1.183-1.085-1.38-1.38 1.085zM7.359 4.845l-.887-.986-.986.887.887 1.085zM22.542 4.942l.887-1.084 1.084.887-.887 1.084zM3.317 11.746l.592-1.675 1.676.591-.592 1.676zM6.472 9.084l1.183-1.38-1.38-1.084L5.19 7.901zM14.261 1h1.38v1.38h-1.38zM21.852 25.056l-.197-.295-.789-1.184-1.479.888.888 1.479 1.38-.789zM22.344 22.296l1.084-1.38L24.808 22l-1.084 1.38zM22.543 25.156l1.084-.887.887 1.085-1.084.887zM18.7 27.128l1.281-.493.493 1.281-1.282.493zM16.725 22.59l1.873-.69.69 1.873-1.873.69zM21.261 10.268l.394.69.591.986 1.677-.986-.986-1.676-1.282.788zM9.43 23.084l1.281-1.478-1.479-1.282-.887 1.084-.394.395.394.394zM8.739 19.732l-.394-.69v.099l-.591-1.085-1.677.986.986 1.676 1.282-.788zM5.29 15.69l1.872-.295.296 1.873-1.873.296zM2.923 14.113h1.775v1.775H2.923zM5.19 14.31l.297-1.872 1.873.295-.296 1.873zM11.993 26.732l.295-1.775 1.775.296-.296 1.774zM9.627 25.845l.887-1.479-1.479-.887-.69 1.282-.197.295.197.099zM10.612 6.127l1.873-.69.69 1.872-1.873.69zM11.993 3.17l1.775-.297.296 1.775-1.775.296zM10.71 23.774l.69-1.873 1.873.69-.69 1.873zM2.528 21.408l.69 1.184 1.085-.691-.69-1.183zM9.527 27.916l.493-1.282 1.281.493-.493 1.282zM14.261 27.62h1.38V29h-1.38zM8.345 8.69v-.098l.887 1.084 1.479-1.282L9.43 6.915l-1.085.986-.394.296zM4.993 17.761l-1.676.591.591 1.578 1.677-.592zM16.627 7.41l.69-1.873 1.873.69L18.5 8.1zM18.598 2.873l.492-1.282 1.282.493-.493 1.281zM5.19 22.098l1.38-1.084 1.084 1.38-1.38 1.084zM6.077 11.056l1.677.986.591-1.084.394-.69-.394-.198-1.282-.69zM15.937 4.746l1.676.296.295-1.774-1.676-.296zM5.487 25.351l.887-1.084 1.084.887-.887 1.085zM13.965 22.789h1.972v1.972h-1.972zM16.232 27.127l1.775-.296-.296-1.676-1.774.197zM8.148 4.944l.197.295.69 1.282 1.578-.887-.888-1.479-1.38.69zM1.049 13.225l1.381.198.197-1.282-1.381-.197zM1.049 16.774l1.38-.197.197 1.38-1.38.197z"/></svg>
