<svg version="1.0" xmlns="http://www.w3.org/2000/svg" width="24" height="24" viewBox="0 0 24 24"><path d="M11.125 4.125h1.75v1.75h-1.75zM11.5.5h1v1h-1zM7.137 1.567l.924-.383.382.924-.923.382zM3.515 4.222l.707-.707.707.707-.707.707zM1.184 8.061l.382-.924.924.383-.382.924zM.5 11.5h1v1h-1zM1.184 15.939l.924-.383.382.924-.924.383zM3.515 19.777l.707-.707.707.707-.707.707zM7.138 22.433l.383-.924.924.383-.383.924zM11.5 22.5h1v1h-1zM15.556 21.893l.924-.382.383.924-.924.382zM19.07 19.78l.708-.708.707.707-.707.707zM21.51 16.48l.382-.925.924.383-.382.924zM22.5 11.5h1v1h-1zM21.51 7.52l.924-.383.383.923-.924.383zM19.07 4.222l.708-.707.707.707-.707.707zM15.556 2.108l.383-.924.924.383-.383.924zM9.362 2.584l1.472-.293.292 1.471-1.471.293zM5.96 4.31l1.247-.833.834 1.247-1.247.833zM3.477 7.206L4.31 5.96l1.248.834-.834 1.247zM2.29 10.833l.294-1.47 1.47.292-.292 1.471zM2.292 13.167l1.47-.293.293 1.471-1.47.293zM3.477 16.793l1.248-.833.833 1.247-1.247.833zM5.96 19.69l.833-1.247 1.248.834-.834 1.247zM9.362 21.416l.293-1.471 1.471.293-.293 1.47zM12.874 20.238l1.471-.292.293 1.47-1.471.293zM15.96 19.276l1.248-.834.833 1.248-1.247.833zM18.444 17.207l.833-1.247 1.247.833-.833 1.247zM19.946 14.345l.292-1.471 1.471.292-.292 1.472zM19.945 9.655l1.472-.293.292 1.472-1.47.292zM18.444 6.793l1.247-.833.833 1.247-1.247.833zM15.96 4.723l.834-1.247 1.247.834-.833 1.247zM12.875 3.762l.292-1.471 1.471.292-.292 1.471zM11.125 18.125h1.75v1.75h-1.75zM8.14 5.043L9.81 4.35l.692 1.671-1.67.692zM13.497 17.978l1.672-.692.692 1.671-1.671.693zM5.761 7.05l1.29-1.289 1.289 1.29-1.29 1.288zM15.66 16.95l1.29-1.29 1.288 1.29-1.289 1.289zM4.353 9.81l.691-1.669 1.669.691-.691 1.669zM17.286 15.168l.692-1.671 1.672.692-.693 1.671zM4.125 11.125h1.75v1.75h-1.75zM18.125 11.125h1.75v1.75h-1.75zM4.351 14.19l1.671-.693.693 1.671-1.672.693zM17.286 8.832l1.672-.693.692 1.672-1.671.692zM5.761 16.95l1.29-1.29 1.288 1.29-1.289 1.288zM15.66 7.05l1.29-1.289 1.289 1.29-1.29 1.288zM8.14 18.957l.693-1.672 1.671.693-.692 1.67zM13.497 6.022l.692-1.671 1.672.692-.693 1.672z"/></svg>
