<svg version="1.0" xmlns="http://www.w3.org/2000/svg" width="36" height="36" viewBox="0 0 36 36"><path fill="#FFF" d="M14.476 6.134l-.016.004.014-.018.002.014zM18.001 6.066c-1.273.001-2.229.418-2.436.909l2.436.962 2.437-.962c-.206-.491-1.162-.908-2.437-.909M18.026 31.518h-.049c-.772.005-1.835-.153-2.346-.302l-.616 1.667c.406.145 1.782.422 2.988.422 1.204 0 2.58-.277 2.986-.422l-.615-1.667c-.514.149-1.576.307-2.348.302M22.688 29.859c-.459.259-1.482.649-2.077.83l.5 1.377a12.471 12.471 0 0 0 2.309-.861l-1.037-.345.305-1.001zM13.316 29.859l.307 1.002-1.038.345c.627.315 1.39.609 2.308.861l.501-1.377c-.595-.181-1.62-.572-2.078-.831M18.001 4.472c.96 0 1.901.23 2.626.633.066-.222.159-.491.284-.774l-.274.033-.287.03-.122-.262-.366-.773-.667.348-.26.132-.208-.205-.726-.718-.724.718-.207.205-.26-.132-.671-.348-.362.773-.124.262-.287-.03-.273-.033c.125.283.217.552.284.774.728-.404 1.668-.633 2.624-.633M32.659 13.412c.125.043.251.062.377.062.543 0 1.068-.351 1.249-.753 0 0-.995-.06-2.067-1.148-.341-.352-.702-.458-1.011-.458-.481 0-.842.254-.842.254 1.294.69 1.558 1.794 2.294 2.043M2.967 13.474c.126 0 .253-.019.374-.062.738-.249 1.005-1.353 2.297-2.042 0 0-.362-.254-.84-.254-.311 0-.672.105-1.014.458-1.07 1.087-2.065 1.148-2.065 1.148.179.401.705.752 1.248.752"/><path fill="#FFF" d="M33.01 17.902l.065.001c1.355 0 1.814-1.452 1.814-1.452h-.027c-.249 0-2.264-.059-3.688-1.869-.937-1.191-1.706-2.237-3.223-2.649l-.15-.027-.032-.152c-.042-.232.117-.449.477-.683 2.095-1.371.672-3.121.672-3.121s-.598 1.4-1.936 1.4l-.099-.002c-.152-.008-.299-.014-.446-.045l-.247-.048s.382-1.038-.539-1.99c-.694-.719-1.537-.842-2.025-.842-.246 0-.401.032-.401.032.462.605.797 1.608.263 2.227-.462.532-1.589.558-1.589 1.351 0 .336.314.728.877 1.08 1.695 1.067 3.377 2.484 4.077 4.382.874 2.367-.111 3.938-1.517 4.84 0 0 .441.406 1.08.458.13.013.257.019.376.019 1.35 0 2.048-.633 2.048-.633s-.115.875-.817 1.686c-.648.75-1.498 1.191-2.796 1.21 0 0-.041.602.534 1.123.368.329 1.217.436 1.217.436s-1.59.322-1.765 2.67c-.095 1.272-.421 1.715-.421 1.715h.029c3.689 0 3.595-3.164 3.595-3.164s.256.937 1.286 1.181c.124.032.257.045.384.045.331 0 .619-.078.619-.078s-.539-1.137-.005-2.727c.444-1.32.372-2.297.372-2.297s.497.752 1.729.758h.013a1.732 1.732 0 0 0 1.473-.778c-2.46-1.021-2.217-4.316-2.217-4.316s.317.237.94.259m-.741 3.443c-1.001-.494-1.633-1.803-1.786-2.275-.166 2.597-1.434 4.399-2.916 6.134-.769.9-1.037 1.774-1.037 1.774s.148-.991.813-1.797c1.383-1.661 2.697-3.73 2.795-6.121.067-1.669-.361-3.022-1.031-4.138.375 1.162.321 2.584-.95 3.912 0 0 2.533-3.034-1.008-6.145-1.417-1.184-2.968-1.915-3.765-2.433 2.884.941 4.292-.095 4.292-.095-.921.798-2.113.785-2.852.67.201.098.409.2.634.321 2.432 1.321 4.617 3.494 4.989 6.503v-.023c.564 2.955 1.822 3.713 1.822 3.713M9.028 24.632s.849-.107 1.218-.436c.574-.521.533-1.123.533-1.123-1.298-.018-2.147-.46-2.799-1.209-.698-.812-.814-1.687-.814-1.687s.698.633 2.046.633c.121 0 .247-.006.377-.018a1.988 1.988 0 0 0 1.082-.458c-1.407-.901-2.392-2.472-1.519-4.84.7-1.897 2.382-3.314 4.077-4.382.563-.352.877-.744.877-1.08 0-.793-1.126-.819-1.587-1.351-.534-.619-.199-1.623.262-2.227 0 0-.154-.031-.401-.031-.487 0-1.33.122-2.024.841-.923.952-.54 1.99-.54 1.99l-.248.049c-.148.031-.296.037-.447.045l-.098.001c-1.342 0-1.936-1.399-1.936-1.399s-1.422 1.75.672 3.122c.36.234.519.452.477.684l-.032.152-.152.027c-1.515.412-2.285 1.459-3.223 2.649-1.424 1.81-3.436 1.869-3.687 1.869h-.028s.46 1.452 1.816 1.452l.065-.001c.623-.022.943-.261.943-.261s.241 3.295-2.218 4.316c0 0 .448.778 1.474.778h.012c1.233-.007 1.729-.759 1.729-.759s-.072.978.371 2.297c.535 1.591-.002 2.727-.002 2.727s.287.078.617.078c.129 0 .26-.013.383-.045 1.028-.244 1.286-1.181 1.286-1.181s-.094 3.164 3.595 3.164h.027s-.323-.442-.418-1.715c-.175-2.349-1.766-2.671-1.766-2.671m-.593.572c-1.482-1.735-2.749-3.537-2.916-6.134-.153.472-.783 1.781-1.783 2.275 0 0 1.257-.758 1.822-3.713v.023c.374-3.009 2.558-5.182 4.991-6.503.223-.121.433-.223.633-.321-.739.115-1.932.128-2.852-.67 0 0 1.408 1.036 4.291.095-.798.518-2.347 1.249-3.764 2.433-3.542 3.111-1.009 6.146-1.009 6.146-1.274-1.328-1.325-2.75-.95-3.912-.671 1.116-1.1 2.469-1.031 4.138.097 2.391 1.41 4.459 2.791 6.121.668.806.818 1.797.818 1.797s-.272-.875-1.041-1.775M15.273 13.062c.06.065.12.136.177.206.014.017.026.031.04.051.053.07.106.145.158.221.012.015.023.033.035.051.062.093.12.19.178.29.532.919 1.383 1.468 2.139 1.469.757-.001 1.607-.55 2.141-1.469.059-.102.119-.201.181-.294.009-.013.019-.027.027-.041.053-.079.108-.156.165-.231l.035-.045c.059-.074.121-.145.183-.211.011-.01.02-.021.03-.029a2.209 2.209 0 0 1 1.017-.606l-.188-.11h-.011l-.749-.435-.769-.441-2.056 1.119-.006-.005-.004.005-2.056-1.119-.769.441-.75.435h-.009l-.19.11c.424.117.745.326 1.018.604.012.011.021.024.033.034m1.896-.089H18.908v.597c-.204-.25-.603-.199-.603-.199v.86s.015.423.163.606h-.86c.151-.183.164-.606.164-.606v-.86s-.397-.051-.603.199v-.597z"/><path fill="#FFF" d="M17.823 11.815V8.321l-2.224-.754.586 3.385 1.638.863zm-.477-2.635v.561l-.108-.049c-.005-.004-.163-.04-.439-.258-.455-.353-.465-.679-.465-.679l1.012.425zM19.817 10.953l.585-3.385-2.222.753v3.494l1.637-.862zM18.658 9.18l1.011-.425s-.009.326-.466.679c-.275.218-.433.254-.439.258l-.107.049V9.18zM14.678 19.914c.216.079.479.095.614.095.005-.016.013-.037.019-.062.012-.039.023-.079.031-.123.038-.194.051-.412.054-.554a.78.78 0 0 1-.292-.308c-.082-.174-.201-.255-.372-.255-.224 0-.463.134-.567.198-.082.483.274.921.513 1.009M19.597 18.061c-.413.449-1.222 1.231-1.261 1.27l-.049.049-2.555-.041a2.63 2.63 0 0 1-.083.626l-.021.081 3.039.546c.316-.221 1.186-.856 1.524-1.105-.246-.359-.269-.784-.214-1.084a1.534 1.534 0 0 1-.38-.342"/><path fill="#FFF" d="M19.943 14.988c-.589.584-1.153.8-1.657.85a2.842 2.842 0 0 1-.278.015h-.012a2.826 2.826 0 0 1-.551-.058c-.033.132-.075.405.045.666.107.236.324.411.64.528l.106.042.002.115c0 .034.025.777.835.984.132-.136.252-.26.341-.363-.165-.389-.079-.787.162-.982-.011.041-.116 1.017.666 1.379l.129.061-.038.137c-.013.041-.273.985.673 1.336l.168.064-.074.162c-.017.036-.388.892.487 1.379h1.896v-1.505c-.674-.082-.96-.625-1.033-1.008-.314-.054-.556-.189-.723-.41-.397-.524-.056-1.003-.051-1.03-.001.004 0 .515.315.83.156.152.341.27.621.296l.138.012.012.141c.002.03.078.722.721.83l-.002-3.075c0-.476.139-.955.306-1.398h-3.844zM14.84 16.398l-.052 1.957.223.035.544-1.88-.276-.577zM20.841 25.381c.017 0 .036.002.054.007.339.097.424 1.317 1.018 1.426a.792.792 0 0 0 .159.016c.172 0 .274-.073.385-.204 0 0-.299-.469-.522-.787-.297-.415-.527-.916-1.081-.916-.013 0-.029 0-.043.002-.182.009-.294.098-.294.098a1.144 1.144 0 0 0-.621-.189c-.346 0-.615.159-.751.159h-.005l-1.235-.122c-.193-.018-.346-.213-.401-.289l-.021-.033c0-.034 0-.068-.002-.098-.042-1.01-.823-1.441-1.102-1.448 0 0 .033-.192-.042-.265l-.273.33-.893-.448.637.745-.54.606c-.068.069-.059.162-.031.202l.233.206.296-.18c.015-.011.042-.014.074-.014.082 0 .205.021.315.021.121 0 .225-.026.237-.139-.037.374-.385 1.025-.156 1.536l.169.386-1.091-.157-.511.863c-.158.287-.182.598-.031.767l.191.239s.268-.284.328-.471l-.087-.095c-.073-.08-.069-.152-.024-.239l.32-.531 1.288.304.068-.116c.088-.146.213-.189.351-.189.057 0 .115.007.176.016.24.047.633.11 1.026.11.432 0 .861-.077 1.089-.333.467.692 1.412.802 1.338 1.154l-.249 1.185c.164-.007.323-.018.474-.039l.237-1.233c.026-.134.051-.315.051-.315-.091-.093-.312-.288-.437-.526-.167-.321-.076-.488-.232-.905.004-.001.051-.097.161-.097m-4.822-1.734a.11.11 0 0 1-.106-.119.11.11 0 0 1 .119-.103.113.113 0 0 1 .107.118.113.113 0 0 1-.12.104"/><path fill="#FFF" d="M14.259 26.502s.428-.176.465-.301l-.057-.143c-.041-.093-.035-.193.043-.248l.461-.319.77.148s-.139-.175-.126-.408l-.735-.156-.693.422a.672.672 0 0 0-.221.801l.093.204zM19.708 28.511c.138-.006.291-.008.457-.008 0 0 .396-1.159.419-1.196a9.62 9.62 0 0 1-.862-.455c.118.176.404.377.347.532l-.361 1.127z"/><path fill="#FFE60D" d="M23.481 21.636H12.524v4.121c0 1.686 1.22 2.741 3.02 2.741 1.504 0 1.9.059 2.46.614.386-.385.704-.528 1.359-.582l.015-.064.345-1.067c-.019-.024-.584-.665-.584-.665-.224.074-.412.087-.728.087-.324 0-.69-.038-1.088-.112a.511.511 0 0 0-.114-.013c-.049 0-.052.004-.065.028l-.068.113-.125.207-.237-.054-1.052-.248-.144.238.022.025.128.141-.057.184c-.077.24-.328.521-.405.598l-.263.282-.24-.302-.18-.226c-.189-.212-.233-.535-.126-.875a.023.023 0 0 1-.011.005l-.297.123-.133-.29-.094-.205a1.003 1.003 0 0 1 .333-1.21l.846-.478.805.158c.019-.077.048-.354.071-.424-.016-.002-.03-.005-.046-.005l-.464.173-.448-.309s-.175-.169-.016-.337l.433-.657-1.098-1.379 1.688.693.112-.139.228-.273.259.246a.498.498 0 0 1 .136.244c.465.181 1.299.716 1.372 1.584l-.261.104v.006c.06.071.109.1.125.103l1.205.118c.031-.005.068-.019.111-.031.15-.051.374-.125.641-.125.217 0 .427.05.629.144a.951.951 0 0 1 .271-.056l.058-.001c.645 0 .966.482 1.223.867.043.067.086.129.13.191.225.318.519.783.531.803l.133.207-.162.189c-.125.145-.314.315-.637.315-.067 0-.139-.007-.218-.022a.966.966 0 0 1-.191-.059c-.009.064-.023.139-.034.205l-.211 1.103c1.264-.311 2.066-1.265 2.066-2.631l-.001-4.121zM12.524 21.305h8.522c-.426-.44-.419-.996-.311-1.358a1.448 1.448 0 0 1-.318-.209c-.333.246-1.35.986-1.615 1.171l-.057.038-3.345-.605h-.068c-.08 0-.198-.003-.326-.019a.325.325 0 0 1-.582.116.327.327 0 0 1-.059-.246l.013-.072c-.345-.243-.663-.786-.522-1.358l.014-.06.049-.035c.007-.005.065-.045.151-.094l-.243-.037a.168.168 0 0 1-.138-.191c.016-.091.101-.156.191-.138l.579.092.053-2.039.861-.911.538 1.132-.568 1.961.512.081c.09.014.152.098.138.191a.164.164 0 0 1-.164.138l-.027-.001-.416-.067c.006.013.014.02.019.033a.445.445 0 0 0 .2.185l2.549.041c.108-.105.375-.367.651-.644a1.372 1.372 0 0 1-.893-1.138c-.351-.15-.593-.373-.727-.664-.163-.36-.105-.722-.062-.897-.34-.124-.697-.35-1.063-.713h-3.841c.165.443.304.921.304 1.398v4.919z"/><path fill="#231F20" d="M16.032 23.425a.11.11 0 0 0-.119.103.11.11 0 0 0 .106.119.113.113 0 0 0 .12-.104.113.113 0 0 0-.107-.118M23.466 30.9l-.631-.242.174-.652.192-.711s-1.118.607-2.695 1.062a8.192 8.192 0 0 1-.786.186v.484s-.843.146-1.695.146h-.048c-.853 0-1.694-.146-1.694-.146v-.484s-.339-.059-.786-.186c-1.576-.455-2.693-1.062-2.693-1.062l.189.711.178.652-.633.242-.702.262c.805.389 1.92.954 2.941 1.234l-.241.658s1.295.59 3.451.595v.001h.029v-.001c2.159-.006 3.453-.595 3.453-.595l-.242-.658c1.021-.279 2.138-.845 2.939-1.234l-.7-.262zm-10.882.306l1.038-.345-.307-1.002c.458.259 1.483.649 2.077.83l-.501 1.377a12.588 12.588 0 0 1-2.307-.86m5.419 2.098c-1.206 0-2.583-.277-2.988-.422l.616-1.667c.511.15 1.575.308 2.346.303h.049c.772.005 1.834-.153 2.347-.303l.615 1.667c-.405.145-1.781.422-2.985.422m3.108-1.238l-.5-1.377c.595-.181 1.619-.571 2.078-.83l-.306 1.002 1.037.345c-.628.315-1.388.608-2.309.86M18.001 4.875c1.285 0 2.313.426 2.881.879 0 0 .169-1.016.745-1.912l-1.035.118-.542-1.15-1.04.536-1.009-.996-1.006.997-1.042-.536-.541 1.15-1.035-.118c.576.896.744 1.912.744 1.912.573-.454 1.597-.88 2.88-.88m-2.634-.511l.287.03.124-.262.362-.773.671.347.26.133.207-.205.724-.718.726.718.208.205.26-.133.667-.347.366.773.122.262.287-.03.274-.033a6.565 6.565 0 0 0-.284.774c-.724-.403-1.665-.633-2.626-.633-.956 0-1.896.23-2.623.633a6.749 6.749 0 0 0-.284-.774l.272.033zM33.074 18.348c1.661 0 2.217-1.69 2.24-1.762l.186-.596-.623.02h-.002c-.219 0-2.053-.049-3.353-1.701l-.122-.154c-.849-1.08-1.654-2.107-3.095-2.576.042-.038.101-.084.183-.137.764-.502 1.208-1.113 1.32-1.821.163-1.066-.517-1.916-.547-1.951l-.462-.572-.289.679c-.019.043-.505 1.129-1.528 1.129h-.076c-.07-.004-.137-.007-.203-.012.036-.484-.052-1.234-.733-1.938-.818-.847-1.821-.974-2.345-.974-.28 0-.466.035-.487.037l-.698.138.431.568c.338.438.645 1.246.281 1.668-.117.134-.356.243-.584.353-.47.216-1.113.519-1.113 1.287 0 .497.386 1.017 1.085 1.459 2.069 1.301 3.345 2.659 3.896 4.157.853 2.305-.26 3.62-1.341 4.313l-.485.312.424.39c.057.05.576.508 1.343.573.145.009.284.017.414.017.491 0 .91-.077 1.25-.181a3.17 3.17 0 0 1-.353.499c-.618.715-1.378 1.041-2.47 1.059l-.406.007-.031.407c-.004.082-.034.838.68 1.48.109.1.241.181.38.248-.485.437-.978 1.197-1.073 2.499-.081 1.087-.339 1.489-.343 1.493l-.448.685.811.011c1.34 0 2.366-.37 3.077-1.102.42-.433.66-.923.802-1.356a2.187 2.187 0 0 0 1.415.52c.378 0 .695-.08.731-.089l.518-.138-.229-.483c-.017-.039-.449-1.009.016-2.392.2-.599.302-1.134.352-1.551.326.17.763.31 1.327.312 1.282 0 1.847-.958 1.872-.998l.253-.44-.468-.193c-1.528-.634-1.866-2.338-1.934-3.259.138.027.296.051.474.056h.08zm1.211 3.61s-.447.778-1.474.778h-.013c-1.232-.007-1.729-.759-1.729-.759s.071.978-.372 2.297c-.535 1.591.005 2.727.005 2.727s-.288.078-.619.078c-.127 0-.259-.013-.384-.045-1.029-.244-1.286-1.181-1.286-1.181s.095 3.164-3.595 3.164h-.028s.325-.442.421-1.715c.175-2.348 1.765-2.67 1.765-2.67s-.848-.107-1.216-.436c-.575-.521-.534-1.123-.534-1.123 1.298-.018 2.148-.46 2.796-1.21.702-.812.817-1.686.817-1.686s-.698.633-2.047.633c-.119 0-.246-.006-.376-.018-.639-.052-1.08-.458-1.08-.458 1.405-.901 2.39-2.473 1.517-4.84-.7-1.897-2.383-3.314-4.077-4.382-.563-.352-.878-.744-.878-1.08 0-.793 1.128-.818 1.59-1.351.534-.619.199-1.623-.263-2.227 0 0 .156-.032.401-.032.488 0 1.331.123 2.025.842.921.952.539 1.99.539 1.99l.247.048c.147.031.294.037.447.045l.099.002c1.338 0 1.936-1.399 1.936-1.399s1.422 1.749-.672 3.121c-.36.234-.519.452-.477.683l.032.152.149.027c1.518.412 2.286 1.459 3.224 2.649 1.425 1.81 3.439 1.869 3.688 1.869h.027s-.46 1.452-1.815 1.452l-.064-.001c-.622-.022-.942-.261-.942-.261s-.244 3.295 2.216 4.317"/><path fill="#231F20" d="M30.154 11.763c.62.33.981.773 1.297 1.165.311.383.606.751 1.068.905.164.056.338.083.516.083.693 0 1.389-.424 1.653-1.012l.266-.589-.643-.038c-.03-.001-.857-.076-1.777-1.016-.378-.386-.836-.588-1.329-.588-.602 0-1.049.301-1.098.332l-.591.416.638.342zm1.053-.647c.309 0 .67.105 1.012.458 1.071 1.087 2.067 1.148 2.067 1.148-.181.401-.706.752-1.249.752a1.15 1.15 0 0 1-.377-.062c-.737-.249-1-1.353-2.294-2.042-.001 0 .36-.254.841-.254M30.445 17.632v.023c-.373-3.009-2.558-5.182-4.989-6.503a17.374 17.374 0 0 0-.634-.321c.74.115 1.932.129 2.852-.67 0 0-1.408 1.036-4.292.095.798.518 2.349 1.249 3.766 2.433 3.54 3.111 1.008 6.145 1.008 6.145 1.272-1.328 1.325-2.75.951-3.912.67 1.115 1.098 2.468 1.031 4.138-.097 2.391-1.412 4.459-2.794 6.121-.665.806-.813 1.797-.813 1.797s.268-.874 1.037-1.774c1.482-1.735 2.749-3.537 2.915-6.134.153.472.785 1.781 1.786 2.275 0 0-1.258-.758-1.824-3.713M11.577 28.764c-.001-.004-.259-.406-.341-1.493-.096-1.302-.589-2.062-1.075-2.499.14-.067.271-.148.38-.248.714-.642.684-1.397.679-1.48l-.028-.407-.409-.007c-1.089-.017-1.851-.343-2.468-1.059a3.357 3.357 0 0 1-.353-.499c.34.104.756.181 1.249.181.132 0 .27-.008.415-.017.767-.066 1.286-.523 1.344-.573l.425-.39-.485-.312c-1.084-.693-2.193-2.008-1.341-4.313.552-1.499 1.826-2.856 3.898-4.157.699-.442 1.082-.962 1.082-1.459 0-.768-.641-1.071-1.112-1.287-.229-.11-.468-.218-.584-.353-.364-.422-.057-1.23.281-1.668l.434-.568-.702-.139c-.021-.002-.205-.037-.486-.037-.525 0-1.525.127-2.343.974-.683.706-.772 1.455-.737 1.94a6.16 6.16 0 0 1-.202.011h-.075c-1.025 0-1.51-1.086-1.529-1.129l-.288-.678-.467.572c-.026.035-.708.885-.542 1.951.11.708.555 1.319 1.32 1.821.083.053.141.099.183.137-1.442.468-2.247 1.496-3.096 2.576l-.123.153c-1.298 1.652-3.135 1.701-3.355 1.701l-.626-.02.191.596c.022.072.576 1.762 2.238 1.762l.08-.002a2.91 2.91 0 0 0 .474-.056c-.069.922-.408 2.625-1.936 3.259l-.467.193.253.44c.024.04.591.998 1.876.998a2.847 2.847 0 0 0 1.324-.312c.05.417.152.952.352 1.551.465 1.383.032 2.354.016 2.392l-.23.483.519.138c.034.008.353.089.73.089A2.168 2.168 0 0 0 7.335 27c.141.433.382.923.801 1.356.713.733 1.738 1.102 3.077 1.102l.812-.011-.448-.683zm-.392.253c-3.69 0-3.595-3.164-3.595-3.164s-.257.937-1.286 1.181a1.492 1.492 0 0 1-.383.045c-.331 0-.617-.078-.617-.078s.536-1.136.002-2.727c-.442-1.319-.371-2.297-.371-2.297s-.496.752-1.729.759h-.013c-1.026 0-1.474-.778-1.474-.778 2.458-1.021 2.218-4.316 2.218-4.316s-.32.238-.943.261l-.065.001c-1.356 0-1.816-1.452-1.816-1.452h.028c.25 0 2.263-.059 3.687-1.869.938-1.19 1.707-2.237 3.223-2.649l.152-.027.032-.152c.042-.232-.117-.449-.477-.684-2.093-1.371-.671-3.12-.671-3.12S7.682 9.35 9.023 9.35l.098-.001c.151-.009.299-.015.447-.046l.247-.048s-.383-1.038.54-1.99c.694-.719 1.537-.841 2.024-.841.247 0 .4.031.4.031-.461.605-.796 1.608-.262 2.227.462.532 1.588.558 1.588 1.351 0 .336-.314.728-.877 1.08-1.695 1.067-3.377 2.484-4.077 4.382-.873 2.367.112 3.939 1.519 4.84 0 0-.442.406-1.082.458-.13.013-.256.018-.377.018-1.348 0-2.046-.633-2.046-.633s.116.875.814 1.687c.652.749 1.501 1.191 2.799 1.209 0 0 .041.602-.533 1.123-.369.329-1.218.436-1.218.436s1.591.322 1.766 2.67c.095 1.272.418 1.715.418 1.715h-.026z"/><path fill="#231F20" d="M2.967 13.916c.178 0 .352-.027.517-.083.463-.154.758-.521 1.069-.905.318-.392.676-.835 1.295-1.165l.638-.342-.592-.416c-.05-.031-.494-.331-1.096-.331-.494 0-.952.202-1.331.588-.92.94-1.745 1.015-1.775 1.016l-.642.038.264.589c.265.586.961 1.011 1.653 1.011m.817-2.342c.342-.352.703-.458 1.014-.458.478 0 .84.254.84.254-1.292.689-1.559 1.793-2.297 2.042a1.12 1.12 0 0 1-.374.062c-.543 0-1.068-.351-1.248-.752.001 0 .996-.061 2.065-1.148M5.867 19.061c-.069-1.669.359-3.022 1.03-4.138-.374 1.162-.323 2.584.951 3.912 0 0-2.533-3.035 1.009-6.146 1.416-1.184 2.966-1.915 3.764-2.433-2.883.941-4.291-.095-4.291-.095.92.798 2.112.784 2.852.669-.2.098-.41.2-.633.321-2.432 1.321-4.616 3.494-4.991 6.503v-.023c-.565 2.955-1.822 3.713-1.822 3.713 1-.494 1.63-1.803 1.784-2.275.167 2.597 1.434 4.399 2.916 6.134.769.9 1.04 1.774 1.04 1.774s-.15-.991-.818-1.797c-1.381-1.66-2.695-3.728-2.791-6.119M17.169 12.973v.597c.206-.25.603-.199.603-.199v.86s-.014.423-.164.606h.86c-.148-.183-.163-.606-.163-.606v-.86s.399-.051.603.199v-.597H17.169zM16.799 9.434c.276.218.434.255.439.258l.108.05V9.18l-1.011-.425s.008.325.464.679M19.204 9.434c.457-.353.466-.679.466-.679l-1.012.425v.562l.107-.05c.005-.004.164-.04.439-.258"/><path fill="#231F20" d="M21.025 7.145c0-.853-1.435-1.62-3.019-1.62H17.997c-1.584 0-3.019.767-3.019 1.62l.031.21.633 3.631-.635.369-1.644.96h.006s-.37.19-.541.307c-.626.434-.759 1.069-.395 1.331.089-.517.498-1.058 1.264-1.058.551 0 .972.285 1.31.711.088.108.17.223.248.346.095.156.191.293.285.425h-4.234c.311.626.607 1.288.607 2.008v9.372c0 2.269 1.744 3.351 3.631 3.351 1.459 0 1.655-.067 2.46.735.801-.802.997-.735 2.457-.735 1.888 0 3.63-1.082 3.63-3.351v-9.372c0-.72.295-1.383.608-2.008h-4.236c.094-.132.19-.269.285-.425.078-.124.161-.239.246-.346.342-.428.761-.711 1.313-.711.765 0 1.173.54 1.264 1.058.364-.262.232-.897-.397-1.331-.169-.117-.539-.307-.539-.307h.006l-1.646-.96-.633-.369.633-3.631.03-.21zm-5.426.422l2.224.754v3.494l-1.637-.863-.587-3.385zm.461 7.421c.365.363.723.589 1.063.713-.044.175-.102.537.061.897.134.291.377.514.727.664.038.359.266.899.894 1.138-.276.277-.543.539-.651.645l-2.549-.041a.454.454 0 0 1-.2-.186c-.005-.013-.013-.02-.019-.032l.416.067.027.001a.164.164 0 0 0 .164-.138.167.167 0 0 0-.138-.191l-.512-.081.568-1.961-.538-1.132-.861.911-.053 2.039-.579-.092c-.089-.017-.175.048-.191.139a.169.169 0 0 0 .138.191l.243.037a1.826 1.826 0 0 0-.151.094l-.049.035-.014.06c-.141.572.178 1.115.522 1.358l-.012.072a.323.323 0 0 0 .059.246.322.322 0 0 0 .266.138.327.327 0 0 0 .316-.254c.128.015.246.018.326.018h.067l3.344.604.057-.038c.266-.186 1.282-.926 1.615-1.172.092.079.194.15.317.21-.108.361-.115.918.312 1.358h-8.523v-4.918c0-.476-.139-.955-.304-1.398h3.842zm4.133 4.5c-.338.249-1.208.885-1.524 1.105l-3.039-.546.021-.081a2.63 2.63 0 0 0 .083-.626l2.554.041.049-.05c.039-.039.848-.821 1.261-1.27.098.123.22.24.382.343-.056.299-.033.725.213 1.084m-5.089-.526a.773.773 0 0 0 .292.308c-.003.141-.016.36-.054.554-.009.043-.02.083-.032.123-.006.025-.014.046-.019.062-.134 0-.398-.016-.614-.095-.239-.088-.595-.526-.513-1.009.103-.063.343-.198.567-.198.173 0 .291.081.373.255m-.316-.607l.052-1.958.439-.465.276.578-.544 1.879-.223-.034zm5.377 10.148c-.166 0-.32.002-.457.008l.362-1.126c.057-.156-.229-.356-.347-.532.178.112.64.357.862.455-.024.036-.42 1.195-.42 1.195m1.136-1.28l-.236 1.233c-.151.021-.31.032-.475.039l.249-1.185c.074-.352-.871-.462-1.338-1.154-.228.256-.657.333-1.089.333a5.58 5.58 0 0 1-1.027-.11 1.066 1.066 0 0 0-.176-.016c-.138 0-.264.043-.351.189l-.068.116-1.288-.304-.32.531c-.045.086-.049.158.024.239l.087.095c-.06.188-.328.472-.328.472l-.191-.239c-.152-.169-.127-.48.031-.767l.511-.863 1.091.158-.169-.386c-.228-.511.119-1.161.156-1.536-.013.113-.117.139-.237.139-.11 0-.233-.021-.315-.021-.032 0-.06.003-.074.014l-.296.179-.233-.206c-.028-.039-.037-.132.031-.202l.54-.606-.638-.745.893.448.273-.33c.075.073.042.265.042.265.278.007 1.06.439 1.102 1.448.002.031.002.065.002.098 0 0 .007.013.021.033.055.076.208.271.401.289l1.234.122h.005c.135 0 .405-.159.751-.159.188 0 .398.048.621.189 0 0 .112-.089.294-.098.014-.002.03-.002.043-.002.553 0 .783.501 1.081.916.223.317.522.787.522.787-.11.131-.213.204-.385.204a.785.785 0 0 1-.159-.016c-.594-.109-.679-1.33-1.018-1.426a.205.205 0 0 0-.054-.007c-.109 0-.157.097-.157.097.155.416.064.584.231.905.124.238.345.433.437.526 0-.001-.025.18-.051.314m-6.633-1.164l.057.143c-.038.125-.465.301-.465.301l-.093-.203a.672.672 0 0 1 .221-.801l.693-.422.735.156a.652.652 0 0 0 .126.408l-.77-.148-.461.319c-.078.053-.084.153-.043.247m6.749 2.33l.212-1.103c.011-.065.025-.141.034-.204a1.181 1.181 0 0 0 .409.081c.323 0 .512-.17.637-.315l.162-.189-.133-.207a20.504 20.504 0 0 0-.531-.803 4.597 4.597 0 0 1-.13-.192c-.257-.385-.578-.866-1.223-.866l-.058.001a.944.944 0 0 0-.271.056 1.468 1.468 0 0 0-.629-.144c-.267 0-.491.074-.641.124-.043.013-.081.026-.111.032l-1.205-.118c-.015-.003-.064-.032-.124-.103v-.006l.261-.104c-.074-.869-.908-1.403-1.373-1.584a.485.485 0 0 0-.135-.244l-.259-.246-.228.273-.112.139-1.688-.693 1.098 1.379-.433.657c-.159.168.016.337.016.337l.448.308.464-.173c.016 0 .03.004.046.006-.023.071-.052.347-.071.424l-.806-.158-.846.478c-.435.32-.494.848-.333 1.21l.094.205.133.29.296-.123a.037.037 0 0 0 .011-.005c-.107.34-.063.664.126.875l.18.226.239.302.263-.282c.077-.077.328-.358.405-.598l.057-.183-.128-.141-.021-.025.144-.238 1.051.248.237.054.126-.208.068-.113c.013-.024.016-.028.065-.028.037 0 .074.004.115.013.397.075.763.112 1.088.112.315 0 .503-.012.728-.087 0 0 .564.641.584.666l-.346 1.067-.015.064c-.655.053-.973.197-1.359.582-.56-.555-.956-.614-2.46-.614-1.8 0-3.02-1.055-3.02-2.741v-4.121h10.957l.002 4.121c-.001 1.364-.804 2.318-2.067 2.629m2.368-13.401c-.168.443-.306.921-.306 1.398l.001 3.075c-.643-.108-.718-.8-.721-.83l-.012-.141-.138-.012a.984.984 0 0 1-.621-.296c-.315-.315-.316-.826-.315-.83-.005.026-.347.506.051 1.03.167.22.409.356.723.41.074.384.359.926 1.034 1.008v1.505h-1.896c-.874-.487-.504-1.343-.487-1.379l.074-.162-.167-.063c-.947-.351-.686-1.295-.673-1.336l.038-.138-.129-.061c-.781-.363-.676-1.338-.665-1.379-.241.195-.327.593-.162.983-.089.103-.21.226-.342.363a1.061 1.061 0 0 1-.835-.984l-.002-.115-.107-.041c-.316-.117-.533-.293-.64-.528a1.035 1.035 0 0 1-.045-.666 2.826 2.826 0 0 0 .551.058H18.007c.094 0 .186-.006.278-.015.505-.05 1.069-.266 1.658-.85h3.842zm-2.953-3.108l.749.435h.01l.188.11a2.209 2.209 0 0 0-1.017.606l-.03.029a3.796 3.796 0 0 0-.183.211l-.035.045a3.556 3.556 0 0 0-.165.231l-.028.041a5.096 5.096 0 0 0-.181.294c-.533.919-1.384 1.468-2.141 1.469-.756-.001-1.607-.55-2.139-1.469a6.777 6.777 0 0 0-.178-.29c-.012-.017-.023-.036-.035-.051a5.717 5.717 0 0 0-.198-.272 4.531 4.531 0 0 0-.177-.206c-.013-.01-.021-.023-.032-.033a2.206 2.206 0 0 0-1.018-.604l.19-.11h.008l.75-.435.769-.441 2.056 1.119.004-.005.006.005 2.055-1.119.772.44zm-1.015-.927l-1.638.863V8.321l2.222-.754-.584 3.386zm-1.816-3.016l-2.436-.962c.207-.491 1.163-.908 2.436-.909 1.276.001 2.231.418 2.437.909l-2.437.962z"/></svg>
