<svg version="1.0" xmlns="http://www.w3.org/2000/svg" width="24" height="24" viewBox="0 0 24 24"><path fill="#231F20" d="M22 13h1v1h-1zM22 11h1v1h-1zM22 9h1v1h-1zM22 6h1v1h-1zM21 16h1v1h-1zM21 14h1v1h-1zM21 12h1v1h-1zM21 10h1v1h-1zM21 8h1v1h-1zM21 5h1v1h-1zM20 17h1v1h-1zM20 15h1v1h-1zM20 13h1v1h-1zM20 11h1v1h-1zM20 9h1v1h-1zM20 7h1v1h-1zM19 18h1v1h-1zM19 16h1v1h-1zM19 14h1v1h-1zM19 12h1v1h-1zM19 10h1v1h-1zM19 8h1v1h-1zM19 6h1v1h-1zM19 4h1v1h-1zM18 5h1v1h-1zM18 3h1v1h-1zM16 20h1v1h-1zM17 8v8h-1V8zM15 20h1v1h-1zM15 16h1v1h-1zM8 12h8v1H8z"/><path fill="#FFE60D" d="M16 13v3h-1v1h-1v1h-4v-1H9v-1H8v-3zM16 8v4H8V8h1V7h1v1h1v1h2V8h1V7h1v1z"/><path fill="#231F20" d="M15 7h1v1h-1zM9 21h6v1H9zM14 17h1v1h-1zM14 6h1v1h-1zM14 5.08h1V6h-1z"/><path fill="#231F20" d="M15 5v.08h-1V6h-4v-.92H9V5zM10 18h4v1h-4zM13 7h1v1h-1z"/><path fill="#FFF" d="M14 6v1h-1v1h-2V7h-1V6z"/><path fill="#231F20" d="M10 2h4v1h-4zM11 8h2v1h-2zM10 7h1v1h-1zM9 17h1v1H9zM9 6h1v1H9zM9 5.08h1V6H9zM8 20h1v1H8zM8 16h1v1H8zM8 7h1v1H8zM7 20h1v1H7zM8 12v4H7V8h1zM5 5h1v1H5zM5 3h1v1H5zM4 18h1v1H4zM4 16h1v1H4zM4 14h1v1H4zM4 12h1v1H4zM4 10h1v1H4zM4 8h1v1H4zM4 6h1v1H4zM4 4h1v1H4zM3 17h1v1H3zM3 15h1v1H3zM3 13h1v1H3zM3 11h1v1H3zM3 9h1v1H3zM3 7h1v1H3zM2 16h1v1H2zM2 14h1v1H2zM2 12h1v1H2zM2 10h1v1H2zM2 8h1v1H2zM2 5h1v1H2zM1 13h1v1H1zM1 11h1v1H1zM1 9h1v1H1zM1 6h1v1H1z"/></svg>
