<svg xmlns="http://www.w3.org/2000/svg" width="36" height="36" viewBox="0 0 36 36"><title>icon_category</title><path fill="none" d="M0 0h36v36H0z"/><path d="M5.63 25h4.67a1.33 1.33 0 0 1 1.33 1.33v1.33A1.33 1.33 0 0 1 10.29 29H5.63v-4zM30.38 29h-4.63a1.33 1.33 0 0 1-1.33-1.33v-1.33A1.33 1.33 0 0 1 25.75 25h4.63v4zM5.5 11h25v10h-25z" fill="#fff" opacity=".3"/><path d="M27.53 34H8.47A3.47 3.47 0 0 1 5 30.53V9.47A3.47 3.47 0 0 1 8.47 6h19.06A3.47 3.47 0 0 1 31 9.47v21.06A3.47 3.47 0 0 1 27.53 34zM8.47 7A2.47 2.47 0 0 0 6 9.47v21.06A2.47 2.47 0 0 0 8.47 33h19.06A2.47 2.47 0 0 0 30 30.53V9.47A2.47 2.47 0 0 0 27.53 7H8.47z" fill="#fff"/><path fill="#fff" d="M13.813 6.251l3.002-5.195.865.5-3.001 5.196zM19.06 6.246L22.06 1.05l.866.5-3.002 5.195z"/></svg>