<svg version="1.0" xmlns="http://www.w3.org/2000/svg" width="36" height="36" viewBox="0 0 36 36"><path fill="#21365F" d="M20 4V3H1v1h15.538zM22.235 18h2.988l6.465-13c.458-.729.77-1 1.228-1H34V3h-9v1h2c1.083 0 1.8.625 1.178 2l-5.943 12z"/><circle fill="#21365F" cx="31.5" cy="15.5" r="2.5"/><path fill="#21365F" d="M24.726 19H10.652l6.981 14.045.059-.117 1.888-3.739L24.221 20H35v-1zM21.355 17.004l-11.566.025.483.971h11.589zM20.34 15.004l-11.545.025.482.971h11.569zM19.326 13.004l-11.525.025.482.971h11.548zM18.311 11.004l-11.504.025.482.971h11.527zM17.296 9.004l-11.483.025.482.971h11.506zM16.281 7.004l-11.463.025.483.971h11.486zM15.562 5.003l-11.738.026.483.971h11.465a2.187 2.187 0 0 1-.21-.997z"/></svg>
