<svg version="1.0" xmlns="http://www.w3.org/2000/svg" width="18" height="18" viewBox="0 0 18 18"><path fill="#E9883C" d="M8.429 3.864H9.57v1.141H8.429zM8.674 1.5h.652v.652h-.652zM5.83 2.195l.601-.25.25.603-.602.25zM3.466 3.927l.46-.46.462.46-.461.461zM1.947 6.432l.25-.603.602.25-.25.602zM1.5 8.674h.652v.652H1.5zM1.946 11.569l.603-.25.25.603-.603.25zM3.466 14.073l.461-.461.461.461-.46.461zM5.83 15.804l.249-.602.602.25-.25.602zM8.674 15.848h.652v.652h-.652zM11.32 15.452l.602-.25.25.603-.603.249zM13.612 14.073l.46-.461.462.46-.461.462zM15.202 11.922l.25-.603.602.25-.25.602zM15.848 8.674h.652v.652h-.652zM15.203 6.078l.602-.25.25.603-.603.25zM13.612 3.927l.46-.461.462.461-.461.461zM11.32 2.549l.249-.603.602.25-.25.602zM7.28 2.859l.96-.191.19.96-.96.19zM5.06 3.984l.814-.543.543.813-.813.543zM3.441 5.874l.544-.813.813.544-.543.813zM2.668 8.24l.191-.96.96.19-.191.96zM2.668 9.761l.96-.19.19.958-.96.191zM3.441 12.127l.813-.544.544.814-.813.543zM5.06 14.015l.544-.813.814.544-.544.813zM7.28 15.14l.191-.958.96.19-.192.96zM9.57 14.373l.959-.19.19.959-.959.19zM11.583 13.745l.813-.543.544.813-.813.544zM13.203 12.396l.543-.813.813.543-.543.813zM14.182 10.529l.19-.96.96.192-.19.959zM14.182 7.471l.959-.19.19.959-.958.19zM13.202 5.604l.814-.543.543.813-.813.543zM11.583 4.254l.543-.813.813.543-.543.813zM9.57 3.627l.19-.959.96.19-.19.96zM8.429 12.995H9.57v1.141H8.429zM6.482 4.463l1.09-.452.452 1.09-1.09.452zM9.977 12.899l1.09-.452.451 1.09-1.09.452zM4.93 5.772l.841-.84.841.84-.84.84zM11.388 12.228l.84-.84.841.84-.84.84zM4.013 7.572l.45-1.088 1.089.45-.45 1.089zM12.447 11.066l.452-1.09 1.09.451-.452 1.09zM3.864 8.429h1.141V9.57H3.864zM12.995 8.429h1.141V9.57h-1.141zM4.011 10.428l1.09-.452.452 1.09-1.09.452zM12.447 6.934l1.09-.452.452 1.09-1.09.452zM4.931 12.229l.84-.841.842.84-.841.841zM11.387 5.771l.841-.84.84.84-.84.841zM6.483 13.537l.451-1.09 1.09.451-.451 1.09zM9.975 5.101l.452-1.09 1.09.452-.451 1.09z"/></svg>
