<svg width="22" height="20" viewBox="0 0 22 20" xmlns="http://www.w3.org/2000/svg"><title>icon_category_cashback__m __white</title><g fill="none" fill-rule="evenodd"><path opacity=".2" d="M-1-4h24v24H-1z"/><path fill="#FFF" opacity=".3" d="M0 4h22v2H0zM4 11h4v2H4z"/><path d="M11.507 16H19C20.102 16 21 15.103 21 13.999V3A1.998 1.998 0 0 0 19.004 1H2.996A1.994 1.994 0 0 0 1 3.001V14C1 15.104 1.898 16 3.007 16H8.02v1H3.007A3.004 3.004 0 0 1 0 13.999V3A2.994 2.994 0 0 1 2.996 0h16.008A2.998 2.998 0 0 1 22 3.001V14A3.003 3.003 0 0 1 19 17h-7.472l1.846 1.847-.471.471-2.829-2.828 2.829-2.829.471.472L11.507 16z" fill="#FFF"/></g></svg>