<svg width="25" height="33" viewBox="0 0 25 33" xmlns="http://www.w3.org/2000/svg" xmlns:xlink="http://www.w3.org/1999/xlink"><title>allowance 36*36</title><defs><path id="a" d="M14 1h7v3h-7z"/><mask id="d" x="0" y="0" width="7" height="3" fill="#fff"><use xlink:href="#a"/></mask><path id="b" d="M9 32h4v2H9z"/><mask id="e" x="0" y="0" width="4" height="2" fill="#fff"><use xlink:href="#b"/></mask><path id="c" d="M23 32h4v2h-4z"/><mask id="f" x="0" y="0" width="4" height="2" fill="#fff"><use xlink:href="#c"/></mask></defs><g transform="translate(-5 -1)" fill="none" fill-rule="evenodd"><path opacity=".1" d="M0 0h36v36H0z"/><path d="M7.5 33A2.503 2.503 0 0 1 5 30.5v-25C5 4.121 6.122 3 7.5 3h20C28.878 3 30 4.121 30 5.5v25c0 1.379-1.122 2.5-2.5 2.5h-20zM6 5.5v25c0 .827.673 1.5 1.5 1.5h20c.827 0 1.5-.673 1.5-1.5v-25c0-.827-.673-1.5-1.5-1.5h-20C6.673 4 6 4.673 6 5.5z" fill="#FFF"/><use stroke="#FFF" mask="url(#d)" stroke-width="2" xlink:href="#a"/><use stroke="#FFF" mask="url(#e)" stroke-width="2" xlink:href="#b"/><use stroke="#FFF" mask="url(#f)" stroke-width="2" xlink:href="#c"/><path fill="#FFF" opacity=".3" d="M11 10h1v17h-1zm6 0h1v17h-1zm6 0h1v17h-1z"/></g></svg>