<svg width="32" height="25" viewBox="0 0 32 25" xmlns="http://www.w3.org/2000/svg"><title>icon_category_cashback__xl __white</title><g fill="none" fill-rule="evenodd"><path opacity=".2" d="M-2-7h36v36H-2z"/><path fill="#FFF" opacity=".3" d="M5 14h6v3H5zM1 5h30v3H1z"/><path d="M15.7 20.999l2.48-2.48-.59-.59-3.535 3.536L17.59 25l.59-.589L15.767 22 29.001 22C30.653 22 32 20.656 32 18.999V3A2.998 2.998 0 0 0 29.004 0H2.996A2.994 2.994 0 0 0 0 3.001V19A3.004 3.004 0 0 0 3.007 22h8.014v-1H3.007A2.004 2.004 0 0 1 1 18.999V3C1 1.893 1.89 1 2.996 1h26.008C30.106 1 31 1.895 31 3.001V19A2.003 2.003 0 0 1 29 21l-13.3-.001z" fill="#FFF"/></g></svg>