<svg xmlns="http://www.w3.org/2000/svg" width="36" height="36" viewBox="0 0 36 36"><title>icon_category</title><path fill="none" d="M0 0h36v36H0z"/><path d="M33 36H3V14.52A3.54 3.54 0 0 1 6.55 11h22.9A3.54 3.54 0 0 1 33 14.52V36zM4 35h28V14.52A2.54 2.54 0 0 0 29.45 12H6.55A2.54 2.54 0 0 0 4 14.52V35z" fill="#fff"/><path fill="#fff" d="M9 17h3v4H9zM16 17h3v4h-3zM23 17h3v4h-3zM15 25h5v10h-5z" opacity=".3"/><path fill="#fff" d="M25 5h-5V4h4V1h-6.5V0H25v5z"/><path fill="#fff" d="M17 0h1v11.26h-1zM0 35h36v1H0z"/></svg>