<svg version="1.0" xmlns="http://www.w3.org/2000/svg" width="24" height="24" viewBox="0 0 24 24"><path d="M8 12V8H7v8h1v-3h8v3h1V8h-1v4zM10 18h4v1h-4zM9 21h6v1H9zM9 5.083V7h1V6h4v1h1V5H9z"/><path d="M11 8h2v1h-2zM10 2h4v1h-4zM5 3h1v1H5zM5 5h1v1H5zM2 5h1v1H2zM4 4h1v1H4zM4 6h1v1H4zM1 6h1v1H1zM3 7h1v1H3zM4 8h1v1H4zM2 8h1v1H2zM3 9h1v1H3zM4 14h1v1H4zM2 14h1v1H2zM2 16h1v1H2zM3 15h1v1H3zM3 17h1v1H3zM4 10h1v1H4zM2 10h1v1H2zM3 11h1v1H3zM4 16h1v1H4zM4 18h1v1H4zM8 16h1v1H8zM8 7h1v1H8zM10 7h1v1h-1zM15 7h1v1h-1zM13 7h1v1h-1zM7 21h2v-1H7zM9 17h1v1H9zM4 12h1v1H4zM2 12h1v1H2zM3 13h1v1H3zM1 9h1v1H1zM1 11h1v1H1zM1 13h1v1H1zM18 3h1v1h-1zM18 5h1v1h-1zM21 5h1v1h-1zM19 4h1v1h-1zM19 6h1v1h-1zM22 6h1v1h-1zM20 7h1v1h-1zM19 8h1v1h-1zM21 8h1v1h-1zM20 9h1v1h-1zM19 14h1v1h-1zM21 14h1v1h-1zM21 16h1v1h-1zM20 15h1v1h-1zM20 17h1v1h-1zM19 10h1v1h-1zM21 10h1v1h-1zM20 11h1v1h-1zM19 16h1v1h-1zM19 18h1v1h-1zM17 21v-1h-2v1h1zM19 12h1v1h-1zM21 12h1v1h-1zM20 13h1v1h-1zM22 9h1v1h-1zM22 11h1v1h-1zM22 13h1v1h-1zM14 17h1v1h-1zM15 16h1v1h-1z"/></svg>
