<svg version="1.0" xmlns="http://www.w3.org/2000/svg" width="30" height="30" viewBox="0 0 30 30"><linearGradient id="a" gradientUnits="userSpaceOnUse" x1="7" y1="9" x2="23" y2="9"><stop offset="0" stop-color="#de3934"/><stop offset="1" stop-color="#e6552f"/></linearGradient><circle fill="url(#a)" cx="15" cy="9" r="8"/><linearGradient id="b" gradientUnits="userSpaceOnUse" x1="7" y1="21.5" x2="23" y2="21.5"><stop offset="0" stop-color="#de3934"/><stop offset="1" stop-color="#e6552f"/></linearGradient><path fill="url(#b)" d="M14.992 19c-4.419.014-7.997 1.145-7.992 2.528.004 1.379 3.591 2.485 8.01 2.471 4.417-.013 7.995-1.144 7.99-2.526-.006-1.379-3.591-2.486-8.008-2.473z"/><linearGradient id="c" gradientUnits="userSpaceOnUse" x1="7" y1="27" x2="23" y2="27"><stop offset="0" stop-color="#de3934"/><stop offset="1" stop-color="#e6552f"/></linearGradient><path fill="url(#c)" d="M23 26.99c.005.552-3.573 1.005-7.99 1.01-4.418.006-8.006-.437-8.01-.989-.005-.553 3.573-1.006 7.992-1.011 4.417-.005 8.002.437 8.008.99z"/></svg>
